<svg width="84" height="50" viewBox="0 0 84 50" fill="none" xmlns="http://www.w3.org/2000/svg">
<g filter="url(#filter0_d_8_8)">
<path d="M45.609 -2.86102e-06L33.789 31.2L21.969 -2.86102e-06H4.80898L22.209 42H45.369L62.769 -2.86102e-06H45.609ZM79.6027 -2.86102e-06H64.0027V42H79.6027V-2.86102e-06Z" fill="black"/>
<path d="M45.609 -2.86102e-06V-1H44.9185L44.6738 -0.354278L45.609 -2.86102e-06ZM33.789 31.2L32.8538 31.5543L33.789 34.0227L34.7241 31.5543L33.789 31.2ZM21.969 -2.86102e-06L22.9041 -0.354278L22.6595 -1H21.969V-2.86102e-06ZM4.80898 -2.86102e-06V-1H3.31228L3.88513 0.382737L4.80898 -2.86102e-06ZM22.209 42L21.2851 42.3827L21.5409 43H22.209V42ZM45.369 42V43H46.0371L46.2928 42.3827L45.369 42ZM62.769 -2.86102e-06L63.6928 0.382737L64.2657 -1H62.769V-2.86102e-06ZM44.6738 -0.354278L32.8538 30.8457L34.7241 31.5543L46.5441 0.354272L44.6738 -0.354278ZM34.7241 30.8457L22.9041 -0.354278L21.0338 0.354272L32.8538 31.5543L34.7241 30.8457ZM21.969 -1H4.80898V0.999997H21.969V-1ZM3.88513 0.382737L21.2851 42.3827L23.1328 41.6173L5.73284 -0.382743L3.88513 0.382737ZM22.209 43H45.369V41H22.209V43ZM46.2928 42.3827L63.6928 0.382737L61.8451 -0.382743L44.4451 41.6173L46.2928 42.3827ZM62.769 -1H45.609V0.999997H62.769V-1ZM79.6027 -2.86102e-06H80.6027V-1H79.6027V-2.86102e-06ZM64.0027 -2.86102e-06V-1H63.0027V-2.86102e-06H64.0027ZM64.0027 42H63.0027V43H64.0027V42ZM79.6027 42V43H80.6027V42H79.6027ZM79.6027 -1H64.0027V0.999997H79.6027V-1ZM63.0027 -2.86102e-06V42H65.0027V-2.86102e-06H63.0027ZM64.0027 43H79.6027V41H64.0027V43ZM80.6027 42V-2.86102e-06H78.6027V42H80.6027Z" fill="black"/>
</g>
<defs>
<filter id="filter0_d_8_8" x="0.809082" y="0" width="82.7937" height="50" filterUnits="userSpaceOnUse" color-interpolation-filters="sRGB">
<feFlood flood-opacity="0" result="BackgroundImageFix"/>
<feColorMatrix in="SourceAlpha" type="matrix" values="0 0 0 0 0 0 0 0 0 0 0 0 0 0 0 0 0 0 127 0" result="hardAlpha"/>
<feOffset dy="4"/>
<feGaussianBlur stdDeviation="2"/>
<feComposite in2="hardAlpha" operator="out"/>
<feColorMatrix type="matrix" values="0 0 0 0 0 0 0 0 0 0 0 0 0 0 0 0 0 0 0.25 0"/>
<feBlend mode="normal" in2="BackgroundImageFix" result="effect1_dropShadow_8_8"/>
<feBlend mode="normal" in="SourceGraphic" in2="effect1_dropShadow_8_8" result="shape"/>
</filter>
</defs>
</svg>
